<svg xmlns="http://www.w3.org/2000/svg" width="212" height="197" fill="none" viewBox="0 0 212 197">
  <path fill="#000" fill-rule="evenodd" d="M94.005.824c24.356-.027 49.76-1.041 70.24 12.143 21.1 13.584 34.798 36.168 42.096 60.178 7.198 23.682 7.867 49.628-1.794 72.417-9.21 21.724-27.281 39.99-49.373 48.275-19.692 7.385-40.786-1.641-61.17-6.817-15.357-3.9-28.03-12.147-42.114-19.41-17.393-8.97-42.347-10.017-49.929-28.058-7.538-17.939 11.736-35.748 15.06-54.92 4.191-24.187-9.752-53.434 6.854-71.512C40.333-4.797 69.676.85 94.005.824Z" clip-rule="evenodd"/>
  <circle cx="103.82" cy="79.402" r="55.042" fill="url(#a)"/>
  <circle cx="103.82" cy="142.382" r="38.335" fill="url(#b)"/>
  <circle cx="60.053" cy="108.967" r="25.477" fill="url(#c)"/>
  <circle cx="150.794" cy="108.967" r="38.335" fill="url(#d)"/>
  <g style="mix-blend-mode:overlay">
    <path fill="#0F0F0F" d="m110.809 31.059 16.695 34.633a11.502 11.502 0 0 0 5.366 5.365l34.633 16.696c1.885.91 1.885 3.595 0 4.504l-34.633 16.696a11.5 11.5 0 0 0-5.366 5.365l-16.695 34.633c-.91 1.886-3.595 1.886-4.504 0l-16.696-34.633a11.5 11.5 0 0 0-5.365-5.365L49.61 92.257c-1.886-.91-1.886-3.595 0-4.504l34.633-16.696a11.5 11.5 0 0 0 5.365-5.365l16.696-34.633c.909-1.886 3.594-1.886 4.504 0Z"/>
    <path stroke="#000" stroke-width="9" d="m110.809 31.059 16.695 34.633a11.502 11.502 0 0 0 5.366 5.365l34.633 16.696c1.885.91 1.885 3.595 0 4.504l-34.633 16.696a11.5 11.5 0 0 0-5.366 5.365l-16.695 34.633c-.91 1.886-3.595 1.886-4.504 0l-16.696-34.633a11.5 11.5 0 0 0-5.365-5.365L49.61 92.257c-1.886-.91-1.886-3.595 0-4.504l34.633-16.696a11.5 11.5 0 0 0 5.365-5.365l16.696-34.633c.909-1.886 3.594-1.886 4.504 0Z"/>
  </g>
  <defs>
    <linearGradient id="a" x1="134.438" x2="78.691" y1="16.843" y2="134.444" gradientUnits="userSpaceOnUse">
      <stop stop-color="#FF26C2"/>
      <stop offset="1" stop-color="#BC9DFC"/>
    </linearGradient>
    <linearGradient id="b" x1="103.82" x2="103.82" y1="104.047" y2="180.717" gradientUnits="userSpaceOnUse">
      <stop stop-color="#FF8383"/>
      <stop offset="1" stop-color="#D31F1F"/>
    </linearGradient>
    <linearGradient id="c" x1="27.725" x2="98.333" y1="108.967" y2="108.967" gradientUnits="userSpaceOnUse">
      <stop stop-color="#E9A0A0"/>
      <stop offset="1" stop-color="#E9C3A0"/>
    </linearGradient>
    <linearGradient id="d" x1="127.803" x2="181.612" y1="90.624" y2="155.331" gradientUnits="userSpaceOnUse">
      <stop stop-color="#B7E9A0"/>
      <stop offset="1" stop-color="#77FB38"/>
    </linearGradient>
  </defs>
</svg>
